<?xml version="1.0" encoding="UTF-8" standalone="no"?>
<!-- Created with Inkscape (http://www.inkscape.org/) -->

<svg
   xmlns:dc="http://purl.org/dc/elements/1.1/"
   xmlns:cc="http://creativecommons.org/ns#"
   xmlns:rdf="http://www.w3.org/1999/02/22-rdf-syntax-ns#"
   xmlns:svg="http://www.w3.org/2000/svg"
   xmlns="http://www.w3.org/2000/svg"
   xmlns:sodipodi="http://sodipodi.sourceforge.net/DTD/sodipodi-0.dtd"
   xmlns:inkscape="http://www.inkscape.org/namespaces/inkscape"
   width="2000"
   height="2000"
   viewBox="0 0 529.16665 529.16668"
   version="1.1"
   id="svg6462"
   sodipodi:docname="UMKM Ayam Goreng.svg"
   inkscape:version="0.92.5 (2060ec1f9f, 2020-04-08)">
  <defs
     id="defs6456" />
  <sodipodi:namedview
     id="base"
     pagecolor="#ffffff"
     bordercolor="#666666"
     borderopacity="1.0"
     inkscape:pageopacity="0.0"
     inkscape:pageshadow="2"
     inkscape:zoom="0.17449402"
     inkscape:cx="-512.58985"
     inkscape:cy="838.40487"
     inkscape:document-units="mm"
     inkscape:current-layer="svg6462"
     showgrid="true"
     inkscape:window-width="1366"
     inkscape:window-height="745"
     inkscape:window-x="-8"
     inkscape:window-y="-8"
     inkscape:window-maximized="1"
     units="px"
     inkscape:snap-page="false"
     inkscape:snap-bbox="true"
     inkscape:bbox-paths="true"
     inkscape:bbox-nodes="true"
     inkscape:snap-bbox-edge-midpoints="true"
     inkscape:snap-bbox-midpoints="true"
     inkscape:snap-global="true"
     showguides="true"
     inkscape:object-paths="true"
     inkscape:snap-intersection-paths="true"
     inkscape:snap-grids="false"
     inkscape:snap-midpoints="true"
     inkscape:snap-smooth-nodes="true"
     inkscape:snap-text-baseline="true"
     inkscape:snap-object-midpoints="false"
     inkscape:snap-center="false">
    <inkscape:grid
       type="xygrid"
       id="grid4110"
       spacingx="2.6458333"
       spacingy="2.6458333"
       empspacing="4" />
  </sodipodi:namedview>
  <metadata
     id="metadata6459">
    <rdf:RDF>
      <cc:Work
         rdf:about="">
        <dc:format>image/svg+xml</dc:format>
        <dc:type
           rdf:resource="http://purl.org/dc/dcmitype/StillImage" />
        <dc:title></dc:title>
      </cc:Work>
    </rdf:RDF>
  </metadata>
  <path
     inkscape:label="C"
     sodipodi:nodetypes="sscsssccscsssssccsss"
     inkscape:connector-curvature="0"
     id="path1736"
     d="m 190.49997,428.625 c -31.75,0 -83.4875,-14.36585 -108.700001,-32.68751 -31.208296,-22.67865 -57.987496,-52.67478 -57.987496,-106.65884 0,-63.49999 8.5826,-127.86102 42.333296,-172.86197 31.75,-42.333331 87.312501,-58.208331 129.645901,-58.208331 58.2083,0 70.0946,8.34572 97.4987,26.47942 26.0139,17.213741 44.0795,36.623541 55.9594,71.416411 l -54.1483,36.1661 c -7.5946,-22.79754 -18.7045,-35.65134 -29.7737,-49.34789 -13.7922,-17.06579 -35.5454,-28.25059 -64.6496,-28.25059 -29.1041,0 -52.3625,9.29179 -70.2568,33.28858 -19.5726,26.24733 -26.2467,54.16594 -34.168601,112.15254 -6.1508,45.02213 19.143201,65.32896 34.014601,79.7771 24.3024,23.61074 44.3576,30.50382 70.8159,30.50382 26.4584,0 45.755,-11.55093 64.2872,-25.3229 15.3138,-11.38028 39.1015,-48.10522 43.7597,-64.43777 l 45.4113,58.86573 c -4.2974,27.60678 -25.8858,46.99904 -47.3864,60.48112 -20.8077,13.04761 -28.1447,17.81153 -53.1551,23.35331 -10.6507,2.35997 -37.0417,5.29167 -63.5,5.29167 z"
     style="fill:#000000;stroke:none;stroke-width:0.26458332px;stroke-linecap:butt;stroke-linejoin:miter;stroke-opacity:1" />
  <g
     inkscape:groupmode="layer"
     id="layer2"
     inkscape:label="Layer 2" />
</svg>
