<?xml version="1.0" encoding="UTF-8" standalone="no"?>
<!-- Created with Inkscape (http://www.inkscape.org/) -->

<svg
   xmlns:dc="http://purl.org/dc/elements/1.1/"
   xmlns:cc="http://creativecommons.org/ns#"
   xmlns:rdf="http://www.w3.org/1999/02/22-rdf-syntax-ns#"
   xmlns:svg="http://www.w3.org/2000/svg"
   xmlns="http://www.w3.org/2000/svg"
   xmlns:sodipodi="http://sodipodi.sourceforge.net/DTD/sodipodi-0.dtd"
   xmlns:inkscape="http://www.inkscape.org/namespaces/inkscape"
   width="2000"
   height="2000"
   viewBox="0 0 529.16665 529.16668"
   version="1.1"
   id="svg6462"
   sodipodi:docname="UMKM Ayam Goreng.svg"
   inkscape:version="0.92.5 (2060ec1f9f, 2020-04-08)">
  <defs
     id="defs6456" />
  <sodipodi:namedview
     id="base"
     pagecolor="#ffffff"
     bordercolor="#666666"
     borderopacity="1.0"
     inkscape:pageopacity="0.0"
     inkscape:pageshadow="2"
     inkscape:zoom="0.11806927"
     inkscape:cx="899.21889"
     inkscape:cy="933.49206"
     inkscape:document-units="mm"
     inkscape:current-layer="layer2"
     showgrid="false"
     inkscape:window-width="1366"
     inkscape:window-height="745"
     inkscape:window-x="-8"
     inkscape:window-y="-8"
     inkscape:window-maximized="1"
     units="px"
     inkscape:snap-page="false"
     inkscape:snap-bbox="true"
     inkscape:bbox-paths="true"
     inkscape:bbox-nodes="true"
     inkscape:snap-bbox-edge-midpoints="true"
     inkscape:snap-bbox-midpoints="true"
     inkscape:snap-global="false"
     showguides="true"
     inkscape:object-paths="true"
     inkscape:snap-intersection-paths="true"
     inkscape:snap-grids="false"
     inkscape:snap-midpoints="true"
     inkscape:snap-smooth-nodes="true"
     inkscape:snap-text-baseline="true"
     inkscape:snap-object-midpoints="false"
     inkscape:snap-center="false">
    <inkscape:grid
       type="xygrid"
       id="grid4110"
       spacingx="2.6458333"
       spacingy="2.6458333"
       empspacing="4" />
  </sodipodi:namedview>
  <metadata
     id="metadata6459">
    <rdf:RDF>
      <cc:Work
         rdf:about="">
        <dc:format>image/svg+xml</dc:format>
        <dc:type
           rdf:resource="http://purl.org/dc/dcmitype/StillImage" />
        <dc:title></dc:title>
      </cc:Work>
    </rdf:RDF>
  </metadata>
  <path
     inkscape:label="D"
     sodipodi:nodetypes="ssssssssssssssss"
     inkscape:connector-curvature="0"
     id="path2295"
     d="m 40.874069,63.943039 c -23.1289,11.72877 -14.1377,128.056841 -14.1377,190.907111 0,57.09417 -7.355123,160.32367 14.1377,168.92622 50.71544,20.29897 111.001481,14.92956 166.835551,14.92956 59.64419,0 104.00025,-35.13534 125.16692,-61.59367 21.16667,-26.45833 44.91534,-81.27123 44.91534,-139.49459 C 377.79189,131.78434 322.36396,79.329559 251.7951,58.908449 190.79774,41.257119 85.715779,41.203609 40.874069,63.943039 Z m 58.497016,54.201171 c 1.008275,-11.94566 97.907085,-21.515771 127.403015,-7.52654 70.67608,33.52002 78.55394,64.99019 72.85173,134.1924 -3.47646,42.19035 -10.03796,60.50908 -29.3039,88.86815 -19.04053,28.02729 -38.94794,38.96335 -75.98961,39.82732 -32.62306,0.76091 -92.10686,-3.13614 -91.7829,-15.55146 1.54089,-59.05214 3.32369,-72.2727 1.10586,-118.16272 -1.95863,-40.52689 -7.696731,-81.21672 -4.284195,-121.64715 z"
     style="fill:#000000;stroke:none;stroke-width:0.26458332px;stroke-linecap:butt;stroke-linejoin:miter;stroke-opacity:1" />
  <g
     inkscape:groupmode="layer"
     id="layer2"
     inkscape:label="Layer 2" />
</svg>
